<svg xmlns="http://www.w3.org/2000/svg" viewBox="0 0 188.2 57.77"><defs><style>.cls-1{fill:#ced7db;}.cls-2{fill:#c92620;}.cls-3{fill:#9fa0a0;}</style></defs><g id="图层_2" data-name="图层 2"><g id="图层_1-2" data-name="图层 1"><rect class="cls-1" x="96.58" y="28.85" width="45.55" height="11.55" transform="translate(153.98 -84.73) rotate(90)"/><rect class="cls-1" x="125.13" y="0.37" width="11.55" height="11.55"/><rect class="cls-1" x="119.68" y="28.85" width="45.55" height="11.55" transform="translate(177.07 -107.83) rotate(90)"/><rect class="cls-1" x="125.12" y="22.75" width="11.55" height="11.55"/><rect class="cls-1" x="165.08" y="22.75" width="11.55" height="11.55"/><polygon class="cls-1" points="165.08 0.37 165.08 11.85 153.53 11.85 153.53 11.92 153.53 45.85 153.53 45.85 165.08 45.85 165.08 57.4 188.18 57.4 188.18 45.85 188.18 34.3 176.63 34.3 176.63 45.85 165.08 45.85 165.08 11.92 176.63 11.92 176.63 22.75 188.18 22.75 188.18 11.92 188.18 11.2 188.18 0.37 165.08 0.37"/><polygon class="cls-1" points="17.66 0 17.66 11.55 17.66 23.1 29.21 23.1 29.21 11.55 52.31 11.55 52.31 0 17.66 0"/><polygon class="cls-1" points="51.01 57.77 51.01 46.22 51.01 34.67 39.46 34.67 39.46 46.22 16.36 46.22 16.36 57.77 51.01 57.77"/><rect class="cls-1" y="17.05" width="11.55" height="40.72"/><rect class="cls-2" width="11.55" height="11.55"/><polygon class="cls-1" points="96.71 45.91 96.71 0.31 85.16 0.31 85.16 45.91 85.16 57.46 108.25 57.46 108.25 45.91 96.71 45.91"/><polygon class="cls-1" points="34.33 23.11 17.66 23.11 17.66 34.66 34.33 34.66 51.01 34.66 51.01 23.11 34.33 23.11"/><rect class="cls-1" x="113.58" y="0.37" width="11.55" height="11.55"/><rect class="cls-1" x="136.68" y="0.37" width="11.55" height="11.55"/><rect class="cls-1" x="176.65" y="22.75" width="11.55" height="11.55"/><rect class="cls-1" x="153.53" y="0.37" width="11.55" height="11.55"/><rect class="cls-1" x="153.53" y="45.85" width="11.55" height="11.55"/><polygon class="cls-3" points="68.08 23.11 56.53 23.11 56.53 34.66 68.08 34.66 79.63 34.66 79.63 23.11 68.08 23.11"/></g></g></svg>