<svg id="图层_1" data-name="图层 1" xmlns="http://www.w3.org/2000/svg" viewBox="0 0 184.75 184.75"><defs><style>.cls-1,.cls-2{fill:#cfd8dc;}.cls-1{fill-rule:evenodd;}</style></defs><title>A-2-0</title><path class="cls-1" d="M284.18,177.19v-4a23.91,23.91,0,0,0-4.25-1.89,15.25,15.25,0,0,0-2.1-.26c-1-.17-1.14.26-1,.81a2.2,2.2,0,0,0,1.94,1.61c1.19-.22,1.57.27,2.43.59.53.16,1.88.49,1.51.86s-.49.06-.92.33-1.78-.54-2.27-.11c-.26.27.06,1.08-.48,1.18-.32.06-.81-.42-1.24-.69-1.24-.71-2.53-1.94-3.77-2.48s-1.45.1-1.29,1a3.47,3.47,0,0,0,.43,1.61c.48,1,3.18,1.46,4.15,2.43.59.54,1.13.7.86,1a3.67,3.67,0,0,1-1.78,1.78c-.81.37-4-3-4.09-2.05.1.75.7,1.67.81,2.48.21,1.18.21,2.15.27,2.47.21.76,1.66,1.08,3.33.54a17,17,0,0,0,2.32-1.13c1-.59,2.1-3,2.69-2.64a6.27,6.27,0,0,1,2.48,2.26h0v-3.66c-1.07-.59-2-1.13-1.67-1.51A2.39,2.39,0,0,1,284.18,177.19Zm-6.41-9.86c.43,0,3-3.45,3.67-4.63a4.37,4.37,0,0,1,1-1.78c.54-.43.91-.32,1.13.06a4.47,4.47,0,0,1,0,2.69c-.17.86-.43.49-.6.75-.91,1.14-1.93,2.21-2.53,3-.37.43.22,1,.54.81,1.08-1.29,2.27-3,3.23-4.26v3.61l-.05.06c-.65.7-1,.37-1.35,1.18.06.22.81.38,1.4.38v2.86c-.32-.22-.7-.39-1-.54a3.09,3.09,0,0,0-1-.38c-.32-.06-.75.16-1.08,0-.48-.27-.86-.54-1.13-.7a7.91,7.91,0,0,0-1-.49,4.42,4.42,0,0,0-2.15-.64c-.81,0-1.78,1.24-2.43,1.5l-1.62.76a1.84,1.84,0,0,1-1.66.22c-.87-.38-.65-1.94-.17-2.38a15.5,15.5,0,0,0,2-1.72c.38-.43.59-1,.91-1.35a1.61,1.61,0,0,1,1-.37c.37-.11.81-.22,1.08.1s.26.65.53.92a1.26,1.26,0,0,0,1.24.32Zm6.41,11.8c.33.22.7.43,1.08.65a4.93,4.93,0,0,0,.76.32v3.5a2.17,2.17,0,0,1-1.84-.81Zm1.84-1.62v-3.34c-.54-.32-1-.59-1.51-.86l-.33-.16v4a3.65,3.65,0,0,1,1.51.27c.11,0,.22,0,.33,0ZM284.18,164a10.74,10.74,0,0,1,1.08-1.34c.27-.33.54-.76.76-1.08v3.82c-.11.11-.17.22-.27.33a.59.59,0,0,0,.27.16v4.9c-.27.05-.22,0-.43.16-.06.11.21.38.43.43v1.83l-.11,0c-.6-.38-1.19-.75-1.73-1.07v-2.86a.77.77,0,0,0,.65-.22c.7-.7,1-1.13.22-1.45-.06,0-.43-.33-.87,0V164ZM288,174.55V172a1,1,0,0,1-.22-.38c.11-.11.17-.16.22-.16v-3.18a1.06,1.06,0,0,1-.54-.11c.16-.32.22-.32.54-.48h0v-2.54a1,1,0,0,1-.32.38,2.09,2.09,0,0,1-1.67.38v4.9l.05-.05c.27-.06.22.21.27.21.16.27.11.32-.27.43H286v1.83C286.77,173.69,287.47,174.17,288,174.55Zm-2,5.55c.32.11.59.16.64.38a3,3,0,0,1-.05,2.53.73.73,0,0,1-.59.59v-3.5Zm2-2.85a1.71,1.71,0,0,0-.65-.22c-.43.05-.75.59-1.34.48v-3.34l2,1.3v1.78Zm-2-15.68c.21-.43.43-.75.7-.75.48,0,1,.59,1.29,1v1.94a.37.37,0,0,0-.27-.11c-.16,0-.22.16-.27.21a18.41,18.41,0,0,0-1.45,1.51v-3.82Zm2,.27c.05,0,.11.1.11.16.16.38.54-.11.8,0a1.51,1.51,0,0,1,1.08,1,2.26,2.26,0,0,0,.54,1.13v5.33a.66.66,0,0,1-.22-.16c-.32-.16-.42.22-.53.43s.11.44.37.54l.38.38V174a.17.17,0,0,0,0,.21v4.91a15.72,15.72,0,0,0-2.53-1.83v-1.78a2.59,2.59,0,0,1,.38.21c.32.22.75,0,.64-.32,0-.11-.43-.38-1-.81V172c.11.05.16.11.27.11s.43,0,.43-.27a.43.43,0,0,0-.32-.38c-.16-.11-.27-.11-.38,0v-3.18a.3.3,0,0,0,.27-.11c.32-.27.43-.38.11-.54-.06.06-.11,0-.38.06v-2.54c.38-.53.43-1,0-1.34Zm2.53,12.33h0c1.73.81,2.11,1.25,2.38,2.59.21,1.13.59,1.94-.33,2.59a2.25,2.25,0,0,1-2.1-.27Zm0-10.07a.67.67,0,0,0,.65.16c.91-.1,1.45-2,2.53-1.34.59.48.59,1.5.65,2.1s-.49,1.13-2.37,1.45a1,1,0,0,0-.49.32c-.27.43.49.87-.27,1.51-.38.33,1.18,1.57,1.29,1.78s.49.06.44-.38c-.06-.1-.11-.53-.27-.91-.22-.65-.54-1.35-.38-1.62s.81,0,1.51.49c.54.37,1.56.37,1.88.86s.7.7.22,2.64c-.11.32-.7.53-1.24.7-.86.32-1.35.81-2.21,1.13a8.17,8.17,0,0,0-1.94,1v-3.34a.84.84,0,0,0,.49.16c.16-.05.37-.32.32-.48a4.24,4.24,0,0,0-.81-.87V164.1Z" transform="translate(-148.13 -123.27)"/><path class="cls-1" d="M252.29,148.53c1.18.38,2,.43,2.05.22a16.74,16.74,0,0,0,.8-4.1,1.27,1.27,0,0,1,1.08-1.08c1-.32,1.35-.48,1.83-.32a3.69,3.69,0,0,1,1.78,2.1c.16.48.59,0-.37,2.05-.43,1-.33,1.18-.17,1.4.43.32,1,.27,1.84.27s1.66-1.4,3,1.29a.82.82,0,0,1-.16,1.14,9.68,9.68,0,0,1-2.8.8c-1.62.38-3.94-.05-3.88,1a21.2,21.2,0,0,0,4.84,10.07,10.08,10.08,0,0,0,2.81,2.32c1.61.91,3,1.67,2,1.88-1.51.32-6.63-.16-7.81-1.24s-3.77-9.05-4.15-10.61c-.05-.05-.16-.11-.27.05-1.24,1.57-3.83,4.42-5.87,5.34a2.11,2.11,0,0,1-2.21-.59c-.32-.38-2.69-1.57-2.91-2.48,0-.54.27-.49.54-.43,3.34.7,4-.17,4.95-.54,2.43-1,3.45-3.67,3.24-3.83-3.13-.54-4.26-.43-4.9-1.77-.92-4.26.75-4.48,2.47-3.83A16.19,16.19,0,0,0,252.29,148.53Z" transform="translate(-148.13 -123.27)"/><path class="cls-1" d="M215.44,157.15a1.63,1.63,0,0,1,1.35.43c1.45,1,1.88,2.86,2.58,3.83a4.08,4.08,0,0,0,1.35-.7c.76-.54,1.61-1.08,1.45-1.3-.59-1.13-3.77-8.62-4.41-9.59-.06-.1-.27-.37-.33-.48a1.88,1.88,0,0,1,.76-3c.86-.27,3.29.54,3.34,1.4-.11.91.8,3.07,1.67,5.12.81,1.72,1.51,3.44,1.88,4,.22.54,2.1-1.07,2.7-1.72.81-.54-.65-3.34-.11-4.2a2.66,2.66,0,0,1,3.66.64,13.89,13.89,0,0,1,1.08,3.67,20.24,20.24,0,0,0,.7,2.42c.16.43-.75,2.86-1.13,3.51-.76.59-2-1.35-2.48-2.43-.27-.59-.32-.81-.54-.86a6.53,6.53,0,0,0-2.37,1.78c-.32.37-.21,1.08-.7,1.45-2.26.92-4.36,2.37-4.52,2.86-.11.27-.81,1.67-.87,2s-1,.43-1.18.59c-.49.49-1.24-.38-2.26-1s-.81-1.24-.87-2.37a11.71,11.71,0,0,0-1.34-4.42C214.52,158.23,214.15,157.47,215.44,157.15Z" transform="translate(-148.13 -123.27)"/><path class="cls-1" d="M189.47,171.59c.43-.22.49-.65.6-1.29a19.11,19.11,0,0,1,1.07-3.51c-.86-.8-1.83-1.56-2.64-2.37a1.45,1.45,0,0,0-.54-.32,1.41,1.41,0,0,1-.86-1.45v-.22a3.17,3.17,0,0,1,.54-1.72c.21-.33,2.26-1.08,2.85-.49a25.7,25.7,0,0,0,2.7,2.64,1.05,1.05,0,0,1,.27-.21v7.16c-.11-.11-.22-.16-.27-.21-.32,0-.27.43-.27.59a2.74,2.74,0,0,1-1.19,1.72c-.32.11.92,1.08,1.73,1.46v6a4,4,0,0,0-.54-.16,2.9,2.9,0,0,1-2.15-.71,12.07,12.07,0,0,1-.76-1.72,4.91,4.91,0,0,0-.48-.7A7.11,7.11,0,0,1,188,173.8,1.88,1.88,0,0,1,189.47,171.59Zm4-8.94c.43-.38,1-.92,1.51-1.51s.75-1.94,1.24-2.53a.92.92,0,0,1,.32-.22v4.53a3.31,3.31,0,0,0-1.45,1.83,5.85,5.85,0,0,0,1.45,1.83v12.71a2.14,2.14,0,0,1-1.19.65c-.48.05-1-.38-1.88-.59v-6c.27.16.54.21.65.1a2.34,2.34,0,0,0,1.13-1.66c.1-.33-1.13-1.51-1.78-2Zm3.07-4.26a4.82,4.82,0,0,1,3.66-.16,1.62,1.62,0,0,1,.7,2l-.21.49a4.44,4.44,0,0,0,.27,2.53.91.91,0,0,0,1,.43c.43.05,1.19,1.67.86,2.42a2.41,2.41,0,0,1-.54,1,6.91,6.91,0,0,0-1.72,3.67c2.8,2.8,5.23,5.54,7.92,8.4,1.29,1.62,2.16,3.45,1.51,4.26-.54.48-2.26-.11-4.15-1.89L198,174.17a22.21,22.21,0,0,0-1.24,2.7v1c0,.32.21.7.11,1a3.19,3.19,0,0,1-.38.48V166.58c.38.38.75.64.86.59a2.42,2.42,0,0,0,.54-2.26c-.16-.7-.49-1.73-1.24-2a.18.18,0,0,1-.16.06Z" transform="translate(-148.13 -123.27)"/><path class="cls-1" d="M240.51,123.27a92.38,92.38,0,1,0,92.38,92.37A92.38,92.38,0,0,0,240.51,123.27Zm0,178.65a86.28,86.28,0,1,1,86.28-86.28A86.28,86.28,0,0,1,240.51,301.92Zm0-170a83.78,83.78,0,1,0,83.77,83.77A83.77,83.77,0,0,0,240.51,131.87Zm0,165.79a82,82,0,1,1,82-82A82,82,0,0,1,240.51,297.66Z" transform="translate(-148.13 -123.27)"/><path class="cls-2" d="M184.5,202.12l-4.59-1.18.12-.42a4.8,4.8,0,0,0,3.16-.65,3.69,3.69,0,0,0,1.75-2.17,2.39,2.39,0,0,0-.08-1.78,1.73,1.73,0,0,0-1.1-1,1.58,1.58,0,0,0-.86,0,3.81,3.81,0,0,0-1.21.67,20.94,20.94,0,0,0-1.79,1.85,10.17,10.17,0,0,1-3.15,2.59,3.9,3.9,0,0,1-2.63.15,4.05,4.05,0,0,1-2.57-2.18,4.94,4.94,0,0,1-.26-3.74,5.93,5.93,0,0,1,.47-1.18,10.32,10.32,0,0,1,.91-1.3,2.44,2.44,0,0,0,.43-.73,1.05,1.05,0,0,0,0-.62,1.36,1.36,0,0,0-.48-.64l.11-.38,5.15,1.47-.1.38a6.12,6.12,0,0,0-3.81.76,4.1,4.1,0,0,0-1.91,2.39,2.61,2.61,0,0,0,.1,2,1.93,1.93,0,0,0,1.24,1.07,1.79,1.79,0,0,0,1,0,3,3,0,0,0,1.09-.53,12.44,12.44,0,0,0,1.59-1.55,16.38,16.38,0,0,1,2.32-2.23,5.27,5.27,0,0,1,1.8-.85,3.61,3.61,0,0,1,1.87.07,3.85,3.85,0,0,1,2.44,2,4.34,4.34,0,0,1,.29,3.35,5.94,5.94,0,0,1-.53,1.24,6.62,6.62,0,0,1-.78,1,3,3,0,0,0-.6.86.56.56,0,0,0,0,.46,1.93,1.93,0,0,0,.69.5Z" transform="translate(-148.13 -123.27)"/><path class="cls-2" d="M183.84,202.45l-1,7.26-.38-.05.05-.36a2.57,2.57,0,0,0,0-1.15,1,1,0,0,0-.41-.5,4.93,4.93,0,0,0-1.49-.34l-6.89-.94a7,7,0,0,0-2.54-.05,2.37,2.37,0,0,0-1.14.8,3.1,3.1,0,0,0-.63,1.59,3.53,3.53,0,0,0,.25,2,3.11,3.11,0,0,0,1.25,1.39A8.49,8.49,0,0,0,174,213l5.74.79a3.31,3.31,0,0,0,1.37,0,1.14,1.14,0,0,0,.63-.42,3,3,0,0,0,.42-1.29l.38.06-.66,4.86-.39-.05,0-.29a1.88,1.88,0,0,0-.1-1,1.43,1.43,0,0,0-.64-.67,3.45,3.45,0,0,0-1.17-.29l-5.35-.73a14,14,0,0,1-3.53-.82,4,4,0,0,1-1.81-1.87,5.79,5.79,0,0,1-.45-3.58,6.79,6.79,0,0,1,.87-2.75,4.17,4.17,0,0,1,2-1.69,5.9,5.9,0,0,1,2.86-.18l6.89.94a5,5,0,0,0,1.53.07,1,1,0,0,0,.53-.4,2.94,2.94,0,0,0,.34-1.2Z" transform="translate(-148.13 -123.27)"/><path class="cls-2" d="M182.18,219.61l-8.44,7.45,6.1-.31a2.93,2.93,0,0,0,1.7-.46,2,2,0,0,0,.5-1.71l.39,0,.24,4.69h-.39a3.74,3.74,0,0,0-.36-1.19,1.18,1.18,0,0,0-.62-.45,4.23,4.23,0,0,0-1.43-.1l-11.8.6,0-.36,11.32-10.18-9,.45a1.74,1.74,0,0,0-2,1.95v.33l-.38,0-.26-5,.39,0a1.75,1.75,0,0,0,2.18,2l10-.51.36-.32a2.81,2.81,0,0,0,.71-.83,2.52,2.52,0,0,0,.14-1l.39,0Z" transform="translate(-148.13 -123.27)"/><path class="cls-2" d="M188.82,246.54l-.36.14a2,2,0,0,0-.78-.85,10.68,10.68,0,0,0-2.84-.66l-5.92-1-3.19,1.27a4.37,4.37,0,0,0-1.22.61,1.12,1.12,0,0,0-.28.6,1.79,1.79,0,0,0,.15.92l.29.74-.36.14-2.94-7.41.36-.14.28.69a1.83,1.83,0,0,0,.57.84,1,1,0,0,0,.62.22,4.33,4.33,0,0,0,1.27-.38l2.65-1.06,4.42-5.35a8.77,8.77,0,0,0,1.45-2.08,1.77,1.77,0,0,0-.09-1.14l.36-.14,2.51,6.33-.36.14-.11-.28a1.51,1.51,0,0,0-.48-.74.5.5,0,0,0-.45-.09,6.54,6.54,0,0,0-1.45,1.48l-3.42,4.12,4.92.79a5.71,5.71,0,0,0,2.29.12.55.55,0,0,0,.34-.43,2.65,2.65,0,0,0-.19-1.33l.36-.14Z" transform="translate(-148.13 -123.27)"/><path class="cls-2" d="M182.87,255.2,180.15,251l-1.49.25a3.18,3.18,0,0,0-1.11.37.94.94,0,0,0-.48.89,4.11,4.11,0,0,0,.54,1.3l-.32.21-2.57-4,.33-.21a2.14,2.14,0,0,0,1.21.71,8.44,8.44,0,0,0,2.46-.14l12.27-1.9.11.17-7,10.63a7.16,7.16,0,0,0-1.1,2.14,1.63,1.63,0,0,0,.23,1.05l-.32.21-3.74-5.77.33-.21.15.24a2.15,2.15,0,0,0,.83.85.57.57,0,0,0,.53-.07,1.75,1.75,0,0,0,.29-.26c0-.05.21-.28.49-.69Zm.46-.72,3-4.43-5.29.83Z" transform="translate(-148.13 -123.27)"/><path class="cls-2" d="M201.49,261.35,198.7,264l-.26-.28a5.94,5.94,0,0,0,.87-1.85,2.78,2.78,0,0,0-.09-1.45,3.71,3.71,0,0,0-.83-1.14l-.72-.77-7.94,7.55a4.43,4.43,0,0,0-.91,1,1.15,1.15,0,0,0,0,.67,2,2,0,0,0,.52.83l.32.34-.28.27-5.12-5.38.28-.27.33.34a1.91,1.91,0,0,0,.84.57,1.08,1.08,0,0,0,.66,0,4.7,4.7,0,0,0,1-.83l7.94-7.54-.7-.75a3,3,0,0,0-1.88-1.09,4.05,4.05,0,0,0-2.55.83l-.27-.29,2.78-2.64Z" transform="translate(-148.13 -123.27)"/><path class="cls-2" d="M200.44,271.18,196.38,268l1.12-1.44,4.06,3.15Z" transform="translate(-148.13 -123.27)"/><path class="cls-2" d="M213.28,268.61l-2.36,4.1-.37-.22a4.81,4.81,0,0,0,.21-3.22,3.73,3.73,0,0,0-1.63-2.26,2.46,2.46,0,0,0-1.74-.4,1.77,1.77,0,0,0-1.22.8,1.62,1.62,0,0,0-.24.83,3.55,3.55,0,0,0,.32,1.34,22,22,0,0,0,1.31,2.23,10.22,10.22,0,0,1,1.67,3.72,4,4,0,0,1-.56,2.58,4.07,4.07,0,0,1-2.78,1.9,5,5,0,0,1-3.68-.74,5.71,5.71,0,0,1-1-.77,9.87,9.87,0,0,1-1-1.22,2.47,2.47,0,0,0-.6-.61,1.11,1.11,0,0,0-.6-.12,1.53,1.53,0,0,0-.76.29l-.33-.2,2.79-4.58.33.2a6.21,6.21,0,0,0-.28,3.87,4.18,4.18,0,0,0,1.81,2.49,2.65,2.65,0,0,0,1.93.42,2,2,0,0,0,1.36-.9,1.92,1.92,0,0,0,.28-1,3,3,0,0,0-.23-1.19,12.21,12.21,0,0,0-1.07-2,16.75,16.75,0,0,1-1.53-2.83,4.8,4.8,0,0,1-.34-2,3.65,3.65,0,0,1,.56-1.79,3.84,3.84,0,0,1,2.56-1.83,4.39,4.39,0,0,1,3.31.62,5.76,5.76,0,0,1,1.06.84,7.36,7.36,0,0,1,.78,1,2.59,2.59,0,0,0,.67.8.53.53,0,0,0,.45.08,2,2,0,0,0,.67-.53Z" transform="translate(-148.13 -123.27)"/><path class="cls-2" d="M217.72,271.84l-2.14,5.37.26.1a2.23,2.23,0,0,0,2.14-.06,5.16,5.16,0,0,0,1.64-2l.37.15-2.75,6.91-.37-.15a5.86,5.86,0,0,0,.25-2.05,2.27,2.27,0,0,0-.49-1.31,3.47,3.47,0,0,0-1.34-.82l-1.48,3.71a5.77,5.77,0,0,0-.44,1.37.87.87,0,0,0,.19.54,1.79,1.79,0,0,0,.75.48l.79.31a4.57,4.57,0,0,0,5.94-1.64l.36.14-2.26,4-11.4-4.54.14-.36.44.17a1.92,1.92,0,0,0,1,.16.91.91,0,0,0,.57-.31,4.43,4.43,0,0,0,.6-1.18l3.45-8.67a7.08,7.08,0,0,0,.39-1.12,1,1,0,0,0-.15-.67,1.77,1.77,0,0,0-.9-.68l-.44-.17.15-.36,11,4.4-1.55,3.9-.37-.15a5.24,5.24,0,0,0,0-2.37,3.23,3.23,0,0,0-1.09-1.49,8,8,0,0,0-2-1Z" transform="translate(-148.13 -123.27)"/><path class="cls-2" d="M228.84,274.59l5.31,9.92,1.1-6a2.84,2.84,0,0,0-.06-1.76,2,2,0,0,0-1.55-.88l.07-.38,4.61.84-.06.38a3.81,3.81,0,0,0-1.25.07,1.25,1.25,0,0,0-.58.5,4.18,4.18,0,0,0-.42,1.37l-2.12,11.63-.35-.07-7.33-13.34-1.61,8.88a2,2,0,0,0,.25,1.72,2.08,2.08,0,0,0,1.19.66l.33.05-.07.39-5-.9.07-.39a2.24,2.24,0,0,0,1.7-.18,2.3,2.3,0,0,0,.74-1.49l1.79-9.86-.23-.42a2.88,2.88,0,0,0-.65-.88,2.53,2.53,0,0,0-.95-.37l.07-.38Z" transform="translate(-148.13 -123.27)"/><path class="cls-2" d="M242.43,276.32l7.25-1.07.06.39-.37.05a2.52,2.52,0,0,0-1.1.34,1,1,0,0,0-.36.53,4.9,4.9,0,0,0,.09,1.52l1,6.88a7.23,7.23,0,0,0,.65,2.46,2.38,2.38,0,0,0,1.09.87,3.16,3.16,0,0,0,1.71.17,3.6,3.6,0,0,0,1.86-.8,3.17,3.17,0,0,0,1-1.59,8.61,8.61,0,0,0-.06-3.2l-.85-5.73a3.34,3.34,0,0,0-.39-1.32,1.17,1.17,0,0,0-.58-.48,2.92,2.92,0,0,0-1.35,0l-.06-.38,4.86-.72.06.39-.29,0a2,2,0,0,0-1,.38,1.39,1.39,0,0,0-.47.8,4,4,0,0,0,0,1.21l.79,5.34a14.13,14.13,0,0,1,.2,3.62,4,4,0,0,1-1.3,2.25,5.74,5.74,0,0,1-3.31,1.43,6.57,6.57,0,0,1-2.89-.07,4.2,4.2,0,0,1-2.17-1.42,5.93,5.93,0,0,1-1-2.7l-1-6.88a5.06,5.06,0,0,0-.35-1.49,1.07,1.07,0,0,0-.54-.4,2.84,2.84,0,0,0-1.24,0Z" transform="translate(-148.13 -123.27)"/><path class="cls-2" d="M260.33,272.78l9.6,5.88-2.09-5.74a3,3,0,0,0-.94-1.5,2,2,0,0,0-1.78,0l-.14-.36,4.41-1.61.13.36a3.56,3.56,0,0,0-1,.7,1.21,1.21,0,0,0-.25.73,4.11,4.11,0,0,0,.32,1.39l4.05,11.11-.33.12-13.07-7.82,3.08,8.48c.28.77.65,1.22,1.1,1.36a2.08,2.08,0,0,0,1.35,0l.32-.12.13.37-4.74,1.72-.13-.36a1.76,1.76,0,0,0,1.26-2.68l-3.43-9.42-.42-.25a2.67,2.67,0,0,0-1-.42,2.33,2.33,0,0,0-1,.15l-.14-.36Z" transform="translate(-148.13 -123.27)"/><path class="cls-2" d="M282.47,277.61l.19.33-6.45,3.68-.2-.34.41-.23a2,2,0,0,0,.76-.69.89.89,0,0,0,.11-.64,4.21,4.21,0,0,0-.55-1.2l-4.62-8.12a4.49,4.49,0,0,0-.78-1.12,1,1,0,0,0-.64-.19,2,2,0,0,0-.92.29l-.41.24-.19-.34,6.45-3.68.19.34-.41.23a2.07,2.07,0,0,0-.76.69,1,1,0,0,0-.12.65,4.54,4.54,0,0,0,.55,1.2l4.63,8.12a4.49,4.49,0,0,0,.78,1.12,1,1,0,0,0,.64.18,1.9,1.9,0,0,0,.93-.29Z" transform="translate(-148.13 -123.27)"/><path class="cls-2" d="M286.72,256.76l.25.3a2.3,2.3,0,0,0-.53,1.52,12.26,12.26,0,0,0,.56,2.73l3.17,11.46-.27.22L279,267.42a14.15,14.15,0,0,0-2.44-1.09,1.69,1.69,0,0,0-1.16.37l-.24-.3,5.23-4.34.25.29-.18.15a2.46,2.46,0,0,0-.82,1,.54.54,0,0,0,.11.51,1.85,1.85,0,0,0,.35.29c.15.09.59.33,1.32.7l6.84,3.5-1.86-6.63c-.23-.8-.4-1.33-.5-1.58a3,3,0,0,0-.33-.58,1,1,0,0,0-.49-.32,1,1,0,0,0-.61,0,3.34,3.34,0,0,0-1,.62l-.25-.3Z" transform="translate(-148.13 -123.27)"/><path class="cls-2" d="M289.52,254l4.64,3.44.17-.23a2.21,2.21,0,0,0,.48-2.08,5.18,5.18,0,0,0-1.54-2.11l.23-.32,6,4.43-.23.32a5.62,5.62,0,0,0-1.92-.76,2.28,2.28,0,0,0-1.39.13,3.44,3.44,0,0,0-1.14,1.09l3.21,2.38a6.25,6.25,0,0,0,1.21.77.87.87,0,0,0,.57,0,1.7,1.7,0,0,0,.66-.61l.5-.68a4.58,4.58,0,0,0-.06-6.16l.23-.31,3.24,3.2L297,266.26l-.31-.23.28-.37a1.94,1.94,0,0,0,.42-.93.92.92,0,0,0-.16-.64,4.56,4.56,0,0,0-1-.88l-7.5-5.56a7.18,7.18,0,0,0-1-.66,1,1,0,0,0-.68,0,1.83,1.83,0,0,0-.89.7L286,258l-.31-.23,7.08-9.54,3.37,2.49-.24.32a5.14,5.14,0,0,0-2.28-.62,3.06,3.06,0,0,0-1.72.66,8.62,8.62,0,0,0-1.46,1.65Z" transform="translate(-148.13 -123.27)"/><path class="cls-2" d="M302.26,246.06l3.7,1.46a4.34,4.34,0,0,0,1.39.41,1,1,0,0,0,.63-.29,3.19,3.19,0,0,0,.66-1.17l.36.15-2.69,6.75-.36-.14a3.31,3.31,0,0,0,.33-1.31,1.16,1.16,0,0,0-.26-.64,4.37,4.37,0,0,0-1.29-.66l-8.57-3.4a4.37,4.37,0,0,0-1.4-.41,1,1,0,0,0-.62.29,3.19,3.19,0,0,0-.66,1.17l-.36-.15,2.44-6.13a14.49,14.49,0,0,1,1.72-3.37,3.77,3.77,0,0,1,1.94-1.32,3.53,3.53,0,0,1,2.37.13,3.35,3.35,0,0,1,2,2,4.56,4.56,0,0,1,.16,2.23l5.73-1.39a7.34,7.34,0,0,0,1.43-.46,1.74,1.74,0,0,0,.7-.79l.36.14-1.66,4.16-7.7,1.86Zm-6.47-2.58,5.78,2.3.22-.55a6.5,6.5,0,0,0,.55-2.13,2.13,2.13,0,0,0-.47-1.41,3.44,3.44,0,0,0-1.54-1.05,3.31,3.31,0,0,0-2.51-.18,3.35,3.35,0,0,0-1.62,2Z" transform="translate(-148.13 -123.27)"/><path class="cls-2" d="M299.13,226.56l4.68.66-.07.43a4.86,4.86,0,0,0-3.07,1,3.75,3.75,0,0,0-1.49,2.36,2.37,2.37,0,0,0,.29,1.76,1.72,1.72,0,0,0,1.19.83,1.64,1.64,0,0,0,.86-.08,3.56,3.56,0,0,0,1.12-.8,22.3,22.3,0,0,0,1.59-2,9.94,9.94,0,0,1,2.83-2.94,4,4,0,0,1,2.6-.44,4,4,0,0,1,2.79,1.88,5,5,0,0,1,.69,3.68,5.85,5.85,0,0,1-.34,1.23,10.59,10.59,0,0,1-.75,1.39,2.3,2.3,0,0,0-.35.78,1.09,1.09,0,0,0,.11.61,1.53,1.53,0,0,0,.55.59l-.06.38L307,237l.07-.38a6.13,6.13,0,0,0,3.69-1.19,4.14,4.14,0,0,0,1.64-2.6,2.63,2.63,0,0,0-.33-1.95,2,2,0,0,0-1.35-.93,1.93,1.93,0,0,0-1,.11,3.06,3.06,0,0,0-1,.65,11.79,11.79,0,0,0-1.4,1.72,16.66,16.66,0,0,1-2.06,2.48,5,5,0,0,1-1.69,1,3.72,3.72,0,0,1-1.88.15,3.83,3.83,0,0,1-2.64-1.7,4.35,4.35,0,0,1-.66-3.3,5.18,5.18,0,0,1,.38-1.29,7.23,7.23,0,0,1,.66-1.11,2.73,2.73,0,0,0,.5-.92.57.57,0,0,0-.1-.45,1.92,1.92,0,0,0-.75-.42Z" transform="translate(-148.13 -123.27)"/><path class="cls-2" d="M314.17,218.29h.39l-.11,7.43h-.39v-.47a2,2,0,0,0-.21-1,.94.94,0,0,0-.49-.42,4.25,4.25,0,0,0-1.32-.14l-9.34-.13a4.49,4.49,0,0,0-1.37.1,1,1,0,0,0-.48.45,1.93,1.93,0,0,0-.22,1v.47h-.39l.11-7.42h.38v.48a2,2,0,0,0,.2,1,1,1,0,0,0,.5.43,4.15,4.15,0,0,0,1.32.14l9.34.13a4.77,4.77,0,0,0,1.36-.1,1.13,1.13,0,0,0,.48-.47,1.79,1.79,0,0,0,.22-.94Z" transform="translate(-148.13 -123.27)"/><path class="cls-2" d="M299.61,205l3.81-.5.05.38a6,6,0,0,0-1.8,1,2.89,2.89,0,0,0-.78,1.23,3.52,3.52,0,0,0,0,1.4l.13,1.05,10.86-1.41a4.15,4.15,0,0,0,1.34-.3,1.09,1.09,0,0,0,.41-.53,2,2,0,0,0,.08-1l-.06-.47.38-.05,1,7.37-.38.05-.06-.47a2,2,0,0,0-.35-1,1,1,0,0,0-.55-.36,4.16,4.16,0,0,0-1.33,0L301.46,213l.14,1a2.94,2.94,0,0,0,.87,2,4,4,0,0,0,2.55.83l.05.4-3.81.49Z" transform="translate(-148.13 -123.27)"/><path class="cls-2" d="M295.34,190.18l.37-.11a2,2,0,0,0,.7.92,10.9,10.9,0,0,0,2.76.92l5.8,1.51,3.29-1a4.56,4.56,0,0,0,1.28-.49,1.06,1.06,0,0,0,.33-.57,1.91,1.91,0,0,0-.06-.93l-.22-.76.37-.11,2.23,7.65-.37.11-.21-.72a1.92,1.92,0,0,0-.49-.89.94.94,0,0,0-.6-.27,4.2,4.2,0,0,0-1.3.26l-2.73.8-4.9,4.91a8.76,8.76,0,0,0-1.64,1.94,1.76,1.76,0,0,0,0,1.14l-.37.11-1.91-6.53L298,198l.09.29a1.63,1.63,0,0,0,.41.78.49.49,0,0,0,.43.13,6.27,6.27,0,0,0,1.59-1.34l3.79-3.78-4.83-1.25a5.88,5.88,0,0,0-2.26-.33.59.59,0,0,0-.38.4,2.53,2.53,0,0,0,.07,1.34l-.37.11Z" transform="translate(-148.13 -123.27)"/><path class="cls-2" d="M240.51,213.73a.64.64,0,0,0-.63.64v5.06a.63.63,0,1,0,1.26,0v-5.06A.64.64,0,0,0,240.51,213.73Zm20.54-22.53a21.45,21.45,0,0,0-41.08,0,27.7,27.7,0,0,0,0,55.3,21.45,21.45,0,0,0,41.08,0,27.7,27.7,0,0,0,0-55.3Zm22.22,29.15c0,.3,0,.59-.07.88s0,.27-.05.41l-.09.75c0,.15-.05.3-.08.45l-.12.69c0,.16-.07.31-.1.47s-.1.44-.16.66l-.12.47-.18.63-.15.47c-.07.21-.13.41-.21.62s-.11.3-.17.46-.15.4-.23.6-.13.3-.19.45l-.27.58-.21.45c-.09.19-.19.37-.29.56l-.23.43c-.1.19-.21.37-.32.55s-.16.28-.24.42l-.35.54-.26.4-.38.54-.27.37-.43.54c-.09.11-.17.23-.26.33l-.54.62-.19.22c-.25.28-.5.54-.76.8-.1.1-.2.2-.31.29l-.49.48-.38.33-.46.4-.41.33-.46.36-.44.32-.46.32-.47.31-.46.3-.49.29-.48.28-.5.27-.48.25-.53.25-.49.22-.54.23-.5.2-.56.21-.5.17c-.19.06-.38.13-.58.18l-.51.15-.59.16-.51.12-.61.13-.51.09-.63.11-.49.06a23.7,23.7,0,0,1-3.06.21c-.5,0-1,0-1.48-.06a17.47,17.47,0,0,1-.93,3.77h0c-.08.22-.17.43-.26.64a3.45,3.45,0,0,1-.14.34c-.06.13-.11.25-.17.37s-.11.23-.17.34-.11.23-.17.35l-.18.33c-.07.14-.15.27-.23.41l-.29.46c-.07.13-.15.25-.23.37l-.21.31-.23.32-.22.3-.27.33a2.56,2.56,0,0,1-.2.26l-.46.53-.22.24-.31.32-.24.24-.32.3-.24.22-.45.4-.24.19-.45.36-.25.18-.38.27-.26.18-.44.28-.21.13-.64.37-.21.11-.48.25-.26.12-.48.22-.24.1-.71.28-.05,0-.7.23-.24.08-.53.15-.26.07-.6.13-.18,0c-.26.06-.52.1-.78.14l-.19,0-.62.08-.27,0-.58,0h-.25c-.27,0-.54,0-.82,0h0c-.28,0-.55,0-.82,0h-.26l-.57,0-.28,0-.6-.08-.2,0c-.26,0-.52-.08-.78-.14l-.2,0-.58-.13-.27-.08-.51-.14-.26-.08-.65-.22-.15-.05-.65-.26-.26-.11-.45-.2-.28-.14-.44-.23-.25-.13-.63-.36-.25-.15-.39-.26-.29-.19-.34-.25a2.83,2.83,0,0,1-.28-.2l-.38-.3-.38-.31c-.13-.11-.25-.21-.36-.32l-.28-.25-.27-.26c-.1-.09-.19-.19-.28-.28l-.25-.27-.27-.28c-.13-.15-.27-.3-.4-.46s-.2-.24-.29-.37l-.22-.26c-.08-.12-.16-.23-.25-.34l-.19-.27-.24-.35-.17-.27c-.14-.22-.28-.45-.41-.68l-.15-.26-.21-.39c-.05-.09-.1-.19-.14-.28l-.2-.4-.12-.28c-.06-.14-.13-.27-.18-.41a.69.69,0,0,1,0-.13,17.35,17.35,0,0,1-1.14-4.27c-.48,0-1,.06-1.47.06a24.33,24.33,0,0,1-3.1-.21l-.45-.06-.66-.11-.48-.09-.63-.14-.49-.11-.61-.17-.49-.13-.6-.2-.48-.16-.58-.22-.47-.18-.57-.24-.46-.21-.55-.27-.46-.23-.53-.29-.44-.25-.52-.32c-.15-.08-.29-.18-.43-.27l-.5-.33-.42-.3-.48-.35-.4-.32c-.16-.12-.32-.24-.47-.37l-.39-.34-.45-.39-.36-.35-.44-.42-.29-.3c-.28-.3-.56-.6-.83-.91l-.35-.41c-.12-.14-.23-.29-.35-.44s-.23-.28-.34-.43l-.33-.45-.32-.45-.3-.47-.31-.47-.28-.48c-.1-.16-.19-.32-.28-.49s-.18-.32-.26-.49-.18-.33-.26-.5l-.24-.5-.24-.52-.21-.51-.21-.54c-.07-.17-.13-.35-.19-.52s-.13-.37-.19-.55l-.17-.53c-.06-.19-.11-.38-.16-.57s-.1-.35-.14-.53-.09-.39-.14-.59-.08-.36-.11-.54-.08-.4-.11-.6-.07-.36-.09-.54-.06-.42-.08-.63,0-.35-.06-.53,0-.46-.06-.69l0-.49c0-.3,0-.61,0-.92a3.39,3.39,0,0,1,0-.52c0-.3,0-.61,0-.92l0-.49c0-.23,0-.46.06-.69s0-.35.06-.52.05-.43.08-.64.06-.36.09-.54.07-.4.11-.6.07-.36.11-.54.09-.39.14-.58.09-.36.14-.54.1-.38.16-.57.11-.35.17-.52.12-.37.19-.56.12-.34.19-.52l.21-.53.21-.51.24-.52.24-.51c.08-.17.17-.33.26-.5l.26-.49c.09-.16.18-.33.28-.49l.28-.48.31-.47.3-.46.32-.45.33-.46c.11-.15.23-.29.34-.43s.23-.3.35-.44l.35-.41c.27-.3.55-.61.83-.9l.29-.31.44-.42.36-.34.45-.4.39-.33.47-.38.4-.31.48-.36.42-.29c.16-.12.33-.23.5-.34l.43-.27.52-.31L210,198l.53-.29.46-.23.55-.26L212,197l.57-.25.47-.18.58-.22.48-.16.6-.19.49-.14.61-.17.49-.11.63-.14.48-.08.66-.12.45-.05a22.63,22.63,0,0,1,3.1-.21c.5,0,1,0,1.48.05a17.35,17.35,0,0,1,1.08-4.15,2.6,2.6,0,0,1,.1-.25c.05-.13.11-.27.17-.4s.09-.2.14-.29.12-.27.18-.39.1-.2.16-.3l.2-.37c0-.1.11-.2.17-.3s.24-.42.38-.63l.18-.29.24-.34.2-.28.24-.33c.07-.1.15-.19.23-.29l.24-.3.44-.51.25-.27.27-.28.27-.27.29-.27.26-.25.39-.34.34-.27.4-.32.27-.2.36-.25.27-.19.41-.26.24-.15c.21-.12.42-.25.63-.36l.24-.13.45-.23.28-.13.45-.21.26-.11.67-.26.12-.05.66-.22.26-.08.51-.14.27-.07.58-.14.2,0,.78-.14.2,0,.61-.08.27,0,.57,0h.26l.82,0h0l.82,0h.25l.58,0,.27,0,.62.08.19,0,.78.14.18,0,.6.14.26.06.53.16.24.07c.24.07.48.15.71.24h0c.25.09.49.18.72.28l.24.1.48.22.25.12.5.26.2.1.65.38.19.12.46.29.24.16.4.29.23.17c.17.12.33.25.48.38l.19.15.49.42.22.21.34.32.23.23.32.34a2.09,2.09,0,0,1,.2.22c.16.17.32.35.47.54a2.11,2.11,0,0,1,.19.23l.28.36.21.28.24.34.2.29.26.4.25.41.25.44.17.32c.07.12.13.24.19.37l.16.33.17.38c.05.11.1.21.14.32s.18.43.26.65h0A17.47,17.47,0,0,1,258,195c.49,0,1-.05,1.48-.05a23.71,23.71,0,0,1,3.06.2l.49.06.63.11.51.09.61.14.51.11.59.16.51.15.58.18.5.17.56.21.5.2.54.23.49.22.53.26.48.24c.17.09.34.18.5.28l.48.27.49.29.46.3.47.31.46.33.44.32.46.36.41.33.46.4.38.33.49.47.31.29c.26.26.51.53.76.8l.19.22.54.62.26.33.43.54.27.38.38.53.26.4.35.54.24.42c.11.18.22.36.32.55l.23.43c.1.19.2.38.29.57l.21.44.27.58c.06.15.12.31.19.46s.16.39.23.6.12.3.17.46.14.41.21.61l.15.47.18.64.12.46c.06.22.11.45.16.67s.07.3.1.46l.12.7c0,.14,0,.29.08.44l.09.76c0,.13,0,.27.05.4,0,.29.05.59.07.88,0,.1,0,.2,0,.3q0,.6,0,1.2t0,1.2C283.28,220.15,283.27,220.25,283.27,220.35Zm-42.76-13a1.4,1.4,0,1,0-1.39-1.4A1.4,1.4,0,0,0,240.51,207.3Zm5.68-4.85h-3.38v7.7h-1.16a1.87,1.87,0,0,0-1.16-.4,1.9,1.9,0,0,0-1.17.4h-1.11v-7.7h-3.38V226h-1.38v3.45h14.12V226h-1.38ZM242.81,226h-4.6v-2.2h4.6Zm0-3.71h-4.6V211.57h1.3a1,1,0,0,1,2,0h1.35Zm3.34-24.74h-2.8v-2.22h-.78v-1.42h.74v-1.29h-.74v-.2a2.06,2.06,0,0,0-1.76-2v-3.57h-.6v3.57a2.06,2.06,0,0,0-1.76,2v.2h-.74v1.29h.74v1.42h-.78v2.22h-2.8v2.1h-1.39V201h14.06v-1.35h-1.39Zm-6.28,0h-.8v-2.22h.8Zm2.08,0h-.8v-2.22h.8Zm17.5-.52h-3.14a15.8,15.8,0,0,0-31.6,0h-3.14a21.86,21.86,0,1,0,0,43.72h3.14a15.8,15.8,0,0,0,31.6,0h3.14a21.86,21.86,0,1,0,0-43.72ZM221.73,225.9a9.36,9.36,0,0,0-4.57-2.17H226A5.22,5.22,0,0,0,221.73,225.9Zm1.05,1.07a3.76,3.76,0,0,1,6.95,2h0v4.27H225c0-.07,0-.13,0-.2A9.37,9.37,0,0,0,222.78,227Zm6.95,7.74v9h-2v-5.82h0a4.9,4.9,0,0,0-1.19-3.21Zm10.78,20A14.41,14.41,0,0,1,227,245.22h27.08A14.41,14.41,0,0,1,240.51,254.71Zm-3.77-11V236.3a3.89,3.89,0,0,1,7.61-.43v7.87Zm16.56-5.82h0v5.82h-2.08v-9h3.26A5,5,0,0,0,253.3,237.92ZM256,233a1.34,1.34,0,0,0,0,.2h-4.81V229h0a3.76,3.76,0,0,1,7-2A9.43,9.43,0,0,0,256,233Zm3.22-7.1a5.19,5.19,0,0,0-4.25-2.2h8.86A9.4,9.4,0,0,0,259.24,225.93Zm16.88-14.63a10.94,10.94,0,0,0-10.57,8.12H246.69v1.48h18.58a11.59,11.59,0,0,0-.08,1.33v0h-18.5v1.48H255a5.23,5.23,0,0,0-5.23,5.23h0v14.78h-2V231H249v-1h-4.61v3.51a5,5,0,0,0-2.42-1.54v-1.12h.53V230h-3.92v.87h.53V232a5.1,5.1,0,0,0-2.33,1.6V230h-4.68v1h1.27v12.76h-2.12V229h0a5.23,5.23,0,0,0-5.23-5.23h8.34v-1.48h-18.5v0a11.59,11.59,0,0,0-.08-1.33h18.58v-1.48H215.46a10.94,10.94,0,0,0-10.57-8.12,10.57,10.57,0,0,0-2.19.22,20.25,20.25,0,0,1,18.86-12.92h4.54v-1.2h0a14.41,14.41,0,1,1,28.81,0v1.2h4.54a20.26,20.26,0,0,1,18.87,12.92A10.66,10.66,0,0,0,276.12,211.3Zm-36.89,35.9h-2.59l-.61,1.88h2.08l-.09.74h-2.26l-.28.86H239Zm-1,1.23h-1.17l.16-.62,1.13,0Zm8.49,1.33.44.92,1.29-.06-.5-.8.59,0-.5-.86h-.72l-.88-1.73h-.89l-.91,1.64.33.92Zm-.74-1.64.36.78h-.75Zm-10.74-.92h-1l-1.58,3.48h1.4Zm5.1,3.48h3.54l-.23-.89h-1.4l1.11-1L243,247.2h-2.62l0,1.34h1l-.09-.54h1l.05.6-1.9,1.16Z" transform="translate(-148.13 -123.27)"/></svg>